<svg width="31" height="31" viewBox="0 0 31 31" fill="none" xmlns="http://www.w3.org/2000/svg">
<path d="M11.9477 28.4168L11.4311 24.2835C11.1512 24.1759 10.8875 24.0467 10.6399 23.896C10.3923 23.7453 10.1502 23.5838 9.91335 23.4116L6.07064 25.0262L2.51855 18.8908L5.8446 16.372C5.82307 16.2213 5.8123 16.076 5.8123 15.9361V15.0642C5.8123 14.9243 5.82307 14.779 5.8446 14.6283L2.51855 12.1095L6.07064 5.97412L9.91335 7.5887C10.1502 7.41648 10.3977 7.25502 10.6561 7.10433C10.9144 6.95363 11.1727 6.82447 11.4311 6.71683L11.9477 2.5835H19.0519L19.5686 6.71683C19.8484 6.82447 20.1121 6.95363 20.3597 7.10433C20.6073 7.25502 20.8495 7.41648 21.0863 7.5887L24.929 5.97412L28.4811 12.1095L25.155 14.6283C25.1765 14.779 25.1873 14.9243 25.1873 15.0642V15.9361C25.1873 16.076 25.1658 16.2213 25.1227 16.372L28.4488 18.8908L24.8967 25.0262L21.0863 23.4116C20.8495 23.5838 20.6019 23.7453 20.3436 23.896C20.0852 24.0467 19.8269 24.1759 19.5686 24.2835L19.0519 28.4168H11.9477ZM15.5644 20.021C16.813 20.021 17.8786 19.5797 18.7613 18.697C19.6439 17.8144 20.0852 16.7488 20.0852 15.5002C20.0852 14.2516 19.6439 13.1859 18.7613 12.3033C17.8786 11.4206 16.813 10.9793 15.5644 10.9793C14.2943 10.9793 13.2232 11.4206 12.3514 12.3033C11.4795 13.1859 11.0436 14.2516 11.0436 15.5002C11.0436 16.7488 11.4795 17.8144 12.3514 18.697C13.2232 19.5797 14.2943 20.021 15.5644 20.021Z" fill="#CECECE"/>
</svg>
